<svg width="181" height="40" viewBox="0 0 181 40" fill="none"
    xmlns="http://www.w3.org/2000/svg">
    <path d="M38.1722 0.000196457H25.0605H20.8242C19.2179 0.000196457 17.9158 1.30241 17.9158 2.90864V22.9874C17.9158 24.4142 19.0714 25.5699 20.4982 25.5699V25.5708H38.1722C60.7107 25.5708 62.0257 18.6504 62.0257 12.786C62.0257 6.91965 60.7107 0.000196457 38.1722 0.000196457Z" fill="#2E2E2D"/>
    <path d="M0.0247679 21.7181L1.39633e-05 33.5313C-0.00731206 37.0872 2.86907 39.9745 6.42402 39.9819L12.7958 39.9956C14.0806 39.9983 15.1246 38.959 15.1274 37.6732H15.1282L15.1612 21.7492C15.2034 1.4415 11.109 0.248322 7.63739 0.240993C4.16486 0.233669 0.0668925 1.41038 0.0247679 21.7181Z" fill="#2E2E2D"/>
    <path d="M43.3467 28.4222H53.2002C54.5354 28.4222 55.768 29.1392 56.4283 30.3004L59.9173 36.4377C60.7863 37.9643 59.8432 40 58.2681 40H41.1893C40.0574 40 39.1398 39.0824 39.1398 37.9496V33.3095C39.1398 30.6108 41.0226 28.4222 43.3467 28.4222Z" fill="#2E2E2D"/>
    <path d="M120.354 6.6226H121.288C121.809 6.6226 122.231 7.04476 122.231 7.56583V19.6528H120.109C119.389 19.6528 118.806 19.0695 118.806 18.3497V8.17115C118.806 7.31584 119.499 6.6226 120.354 6.6226Z" fill="#2E2E2D"/>
    <path d="M152.234 9.42116L152.221 11.6547H164.764V14.4743H152.221L152.234 16.8342H165.558C167.071 16.8342 168.297 18.0604 168.297 19.5732V19.6528H150.251C149.454 19.6528 148.809 19.0072 148.809 18.2105V8.11621C148.809 7.29203 149.477 6.6226 150.302 6.6226H168.236C168.269 8.15832 167.034 9.42116 165.497 9.42116H152.234Z" fill="#2E2E2D"/>
    <path d="M75.0591 19.3832V19.6528H75.3176C75.1581 19.584 75.0591 19.4887 75.0591 19.3832Z" fill="#2E2E2D"/>
    <path d="M89.8218 11.6052C89.8218 11.7545 89.8081 11.9083 89.7468 12.0603C89.5242 12.6125 88.6662 13.1455 85.5114 13.3681H75.8062H75.3172H75.059V13.0988V9.7343H75.8062H77.45H81.8383C88.6561 9.7343 89.6716 10.5613 89.8035 11.3543C89.8136 11.4157 89.8191 11.477 89.821 11.5375C89.821 11.5421 89.8218 11.5466 89.8218 11.5512C89.8218 11.554 89.821 11.5567 89.821 11.5604C89.8219 11.575 89.8218 11.5906 89.8218 11.6052ZM84.9894 6.6226H73.1276C72.3035 6.6226 71.6341 7.29203 71.6341 8.11621V19.6528H74.1341C74.6451 19.6528 75.059 19.2389 75.059 18.7279V16.4999H76.8063H83.6496C92.3777 16.4999 92.8869 13.8204 92.8869 11.5494C92.8869 9.401 92.4263 6.88817 84.9894 6.6226Z" fill="#2E2E2D"/>
    <path d="M99.2407 13.3681H98.4935V9.7343H100.885H105.273C112.091 9.7343 113.105 10.5613 113.238 11.3543C113.248 11.4157 113.253 11.477 113.255 11.5375C113.255 11.5421 113.256 11.5466 113.256 11.5512C113.256 11.554 113.255 11.5567 113.255 11.5604C113.255 11.575 113.256 11.5906 113.256 11.6052C113.256 11.7545 113.242 11.9083 113.18 12.0603C112.958 12.6125 112.1 13.1455 108.946 13.3681H99.2407ZM115.883 19.1858L112.669 15.9331C116.058 15.0247 116.321 13.1812 116.321 11.5494C116.321 9.401 115.861 6.88817 108.423 6.6226H99.2407H96.5622C95.7371 6.6226 95.0686 7.29203 95.0686 8.11621V19.6528H97.1913C97.9102 19.6528 98.4935 19.0704 98.4935 18.3515V16.4999H100.24H107.084C107.557 16.4999 108.001 16.4907 108.427 16.4752L111.562 19.6528H115.688C115.931 19.6528 116.054 19.3589 115.883 19.1858Z" fill="#2E2E2D"/>
    <path d="M135.22 16.4963H130.566V16.4971H128.029V10.4331V9.75176H130.853H135.22C143.223 9.75176 143.69 11.5777 143.69 13.1244C143.69 14.6712 143.223 16.4963 135.22 16.4963ZM134.941 6.59606H125.916C125.187 6.59606 124.598 7.18672 124.598 7.91475V18.13C124.598 18.9715 125.279 19.6528 126.12 19.6528H128.246H134.941C146.449 19.6528 147.121 16.1199 147.121 13.1244C147.121 10.129 146.449 6.59606 134.941 6.59606Z" fill="#2E2E2D"/>
    <path d="M95.7397 31.6466H103.112C103.482 31.6466 103.673 31.2043 103.419 30.9351L100.017 26.9213C99.6966 26.5816 99.1554 26.5816 98.834 26.9213L95.4329 30.9351C95.1792 31.2043 95.3697 31.6466 95.7397 31.6466ZM106.309 34.446H92.5427L90.3248 36.7886H86.8028C86.4338 36.7886 86.2396 36.3517 86.486 36.077L96.6362 24.7913C97.1975 24.1667 97.9988 23.8105 98.8385 23.8105H99.4256H99.9677C100.837 23.8105 101.665 24.1796 102.246 24.8252L112.366 36.077C112.612 36.3517 112.417 36.7886 112.048 36.7886H108.507L106.309 34.446Z" fill="#2E2E2D"/>
    <path d="M115.954 36.7886H114.226V25.2995C114.226 24.5001 114.874 23.8517 115.673 23.8517H117.966C118.173 23.8517 118.371 23.9333 118.518 24.0789L126.209 31.7501L133.9 24.0789C134.046 23.9333 134.245 23.8517 134.451 23.8517H136.744C137.543 23.8517 138.192 24.5001 138.192 25.2995V36.7886H136.463C135.529 36.7886 134.771 36.0312 134.771 35.0972V27.8114L127.775 34.8243C126.911 35.6906 125.507 35.6906 124.642 34.8243L117.646 27.8114V35.0972C117.646 36.0312 116.889 36.7886 115.954 36.7886Z" fill="#2E2E2D"/>
    <path d="M165.06 35.5746L165.717 36.7422H148.087C147.237 36.7422 146.548 36.0535 146.548 35.2037V25.3154C146.548 24.4656 147.237 23.7761 148.087 23.7761H149.977V33.6258H161.729C163.11 33.6258 164.384 34.3704 165.06 35.5746Z" fill="#2E2E2D"/>
    <path d="M167.482 31.196L158.174 24.3966C157.922 24.2134 158.052 23.8151 158.365 23.8151H162.741L169.519 28.4717L176.298 23.8151H180.654C180.965 23.8151 181.095 24.2134 180.844 24.3966L171.537 31.196V35.2107C171.537 36.0825 170.83 36.7886 169.958 36.7886H167.482V31.196Z" fill="#2E2E2D"/>
    <path d="M75.0425 31.5514H87.5279V28.7455H75.0425V26.6045H88.2449C89.7733 26.6045 91.0032 25.348 90.9702 23.8197H73.1213C72.2998 23.8197 71.6341 24.4855 71.6341 25.306V35.3526C71.6341 36.1457 72.2769 36.7886 73.07 36.7886H75.0425V33.9827V31.5514Z" fill="#2E2E2D"/>
    <path d="M142.22 23.7317H143.156C143.677 23.7317 144.1 24.1548 144.1 24.6759V36.7886H141.974C141.253 36.7886 140.668 36.2043 140.668 35.4827V25.2821C140.668 24.4259 141.362 23.7317 142.22 23.7317Z" fill="#2E2E2D"/>
</svg>
