<svg width="682" height="887" viewBox="0 0 682 887" fill="none"
    xmlns="http://www.w3.org/2000/svg">
    <g opacity="0.05">
        <path d="M33.4111 681.719L21.8183 701.799L21.817 701.798L18.0714 708.285C16.6518 710.744 17.4852 713.885 19.9338 715.299L50.5351 732.966C52.7083 734.221 55.4916 733.468 56.7523 731.285L56.7538 731.285L72.3809 704.218C92.3078 669.704 82.9251 661.6 73.9856 656.439C65.0461 651.278 53.338 647.205 33.4111 681.719Z" fill="#BAB5B2"/>
        <path d="M32.7718 758.455L50.7652 768.893L50.7644 768.894C56.1791 772.036 63.144 770.142 66.321 764.665L72.0163 754.85C73.1632 752.87 72.507 750.346 70.5502 749.21L70.551 749.209L46.2973 735.139C15.3673 717.196 9.90198 722.458 6.80087 727.806C3.69752 733.155 1.84178 740.511 32.7718 758.455Z" fill="#BAB5B2"/>
        <path d="M81.1222 697.078L89.7579 682.12C90.9284 680.093 93.1341 678.871 95.537 678.923L108.235 679.192C111.396 679.259 113.766 682.536 112.386 684.928L97.4182 710.852C96.4258 712.571 94.1799 713.132 92.4012 712.105L85.1118 707.896C80.8712 705.448 79.0856 700.605 81.1222 697.078Z" fill="#BAB5B2"/>
        <path d="M128.674 736.719L117.081 756.799L117.08 756.798L113.334 763.285C111.914 765.744 112.748 768.885 115.197 770.299L145.798 787.966C147.971 789.221 150.754 788.468 152.015 786.285L152.016 786.285L167.644 759.218C187.571 724.704 178.188 716.6 169.248 711.439C160.309 706.278 148.601 702.205 128.674 736.719Z" fill="#BAB5B2"/>
        <path d="M128.034 813.455L146.028 823.893L146.027 823.894C151.442 827.036 158.407 825.142 161.584 819.665L167.279 809.85C168.426 807.87 167.77 805.346 165.813 804.21L165.814 804.209L141.56 790.139C110.63 772.196 105.165 777.458 102.064 782.806C98.9602 788.155 97.1045 795.511 128.034 813.455Z" fill="#BAB5B2"/>
        <path d="M176.385 752.078L185.021 737.12C186.191 735.093 188.397 733.871 190.8 733.923L203.498 734.192C206.659 734.259 209.029 737.536 207.648 739.928L192.681 765.852C191.689 767.571 189.443 768.132 187.664 767.105L180.374 762.896C176.134 760.448 174.348 755.605 176.385 752.078Z" fill="#BAB5B2"/>
        <path d="M227.401 793.719L215.808 813.799L215.807 813.798L212.061 820.285C210.642 822.744 211.475 825.885 213.924 827.299L244.525 844.966C246.698 846.221 249.481 845.468 250.742 843.285L250.744 843.285L266.371 816.218C286.298 781.704 276.915 773.6 267.975 768.439C259.036 763.278 247.328 759.205 227.401 793.719Z" fill="#BAB5B2"/>
        <path d="M226.762 870.455L244.755 880.893L244.754 880.894C250.169 884.036 257.134 882.142 260.311 876.665L266.006 866.85C267.153 864.87 266.497 862.346 264.54 861.21L264.541 861.209L240.287 847.139C209.357 829.196 203.892 834.458 200.791 839.806C197.687 845.155 195.832 852.511 226.762 870.455Z" fill="#BAB5B2"/>
        <path d="M275.112 809.078L283.748 794.12C284.918 792.093 287.124 790.871 289.527 790.923L302.225 791.192C305.386 791.259 307.756 794.536 306.375 796.928L291.408 822.852C290.416 824.571 288.17 825.132 286.391 824.105L279.102 819.896C274.861 817.448 273.075 812.605 275.112 809.078Z" fill="#BAB5B2"/>
        <path d="M256.911 294.606L245.318 314.685L245.317 314.684L241.571 321.172C240.152 323.631 240.985 326.772 243.434 328.185L274.035 345.853C276.208 347.108 278.992 346.355 280.252 344.171L280.254 344.172L295.881 317.105C315.808 282.59 306.425 274.487 297.486 269.326C288.546 264.164 276.838 260.091 256.911 294.606Z" fill="#BAB5B2"/>
        <path d="M256.272 371.341L274.265 381.78L274.264 381.781C279.679 384.922 286.644 383.028 289.821 377.552L295.516 367.736C296.663 365.756 296.007 363.232 294.05 362.097L294.051 362.095L269.797 348.026C238.867 330.082 233.402 335.345 230.301 340.693C227.198 346.042 225.342 353.398 256.272 371.341Z" fill="#BAB5B2"/>
        <path d="M304.622 309.964L313.258 295.007C314.428 292.98 316.634 291.758 319.037 291.809L331.735 292.079C334.896 292.146 337.266 295.423 335.886 297.815L320.918 323.739C319.926 325.458 317.68 326.018 315.901 324.991L308.612 320.783C304.371 318.335 302.586 313.492 304.622 309.964Z" fill="#BAB5B2"/>
        <path d="M352.174 349.606L340.581 369.685L340.58 369.685L336.834 376.172C335.414 378.631 336.248 381.772 338.697 383.186L369.298 400.853C371.471 402.108 374.254 401.355 375.515 399.171L375.516 399.172L391.144 372.105C411.071 337.591 401.688 329.487 392.748 324.326C383.809 319.165 372.101 315.092 352.174 349.606Z" fill="#BAB5B2"/>
        <path d="M351.534 426.342L369.528 436.78L369.527 436.781C374.942 439.923 381.906 438.029 385.083 432.552L390.779 422.737C391.926 420.757 391.269 418.233 389.313 417.097L389.313 417.096L365.06 403.026C334.13 385.082 328.664 390.345 325.563 395.693C322.46 401.042 320.604 408.398 351.534 426.342Z" fill="#BAB5B2"/>
        <path d="M399.885 364.964L408.521 350.007C409.691 347.98 411.897 346.758 414.3 346.81L426.998 347.079C430.159 347.146 432.529 350.423 431.148 352.815L416.181 378.739C415.189 380.458 412.943 381.018 411.164 379.992L403.874 375.783C399.634 373.335 397.848 368.492 399.885 364.964Z" fill="#BAB5B2"/>
        <path d="M450.901 406.606L439.308 426.685L439.307 426.685L435.561 433.172C434.142 435.631 434.975 438.772 437.424 440.186L468.025 457.853C470.198 459.108 472.981 458.355 474.242 456.171L474.244 456.172L489.871 429.105C509.798 394.591 500.415 386.487 491.475 381.326C482.536 376.165 470.828 372.092 450.901 406.606Z" fill="#BAB5B2"/>
        <path d="M450.261 483.342L468.255 493.78L468.254 493.781C473.669 496.923 480.633 495.029 483.81 489.552L489.506 479.737C490.653 477.757 489.996 475.233 488.04 474.097L488.041 474.096L463.787 460.026C432.857 442.082 427.391 447.345 424.29 452.693C421.187 458.042 419.331 465.398 450.261 483.342Z" fill="#BAB5B2"/>
        <path d="M498.612 421.964L507.248 407.007C508.418 404.98 510.624 403.758 513.027 403.81L525.725 404.079C528.886 404.146 531.256 407.423 529.875 409.815L514.908 435.739C513.916 437.458 511.67 438.018 509.891 436.992L502.602 432.783C498.361 430.335 496.575 425.492 498.612 421.964Z" fill="#BAB5B2"/>
        <path d="M107.911 552.681L96.3183 572.761L96.317 572.76L92.5714 579.247C91.1518 581.706 91.9852 584.847 94.4338 586.261L125.035 603.929C127.208 605.183 129.992 604.43 131.252 602.247L131.254 602.248L146.881 575.181C166.808 540.666 157.425 532.562 148.486 527.401C139.546 522.24 127.838 518.167 107.911 552.681Z" fill="#BAB5B2"/>
        <path d="M107.272 629.417L125.265 639.855L125.264 639.857C130.679 642.998 137.644 641.104 140.821 635.627L146.516 625.812C147.663 623.832 147.007 621.308 145.05 620.173L145.051 620.171L120.797 606.101C89.8673 588.158 84.402 593.42 81.3009 598.769C78.1975 604.118 76.3418 611.474 107.272 629.417Z" fill="#BAB5B2"/>
        <path d="M155.622 568.04L164.258 553.083C165.428 551.055 167.634 549.833 170.037 549.885L182.735 550.155C185.896 550.221 188.266 553.499 186.886 555.89L171.918 581.814C170.926 583.533 168.68 584.094 166.901 583.067L159.612 578.858C155.371 576.41 153.586 571.567 155.622 568.04Z" fill="#BAB5B2"/>
        <path d="M203.174 607.681L191.581 627.761L191.58 627.76L187.834 634.247C186.414 636.706 187.248 639.847 189.697 641.261L220.298 658.929C222.471 660.183 225.254 659.43 226.515 657.247L226.516 657.248L242.144 630.181C262.071 595.666 252.688 587.562 243.748 582.401C234.809 577.24 223.101 573.167 203.174 607.681Z" fill="#BAB5B2"/>
        <path d="M202.534 684.417L220.528 694.855L220.527 694.857C225.942 697.998 232.907 696.104 236.084 690.627L241.779 680.812C242.926 678.832 242.27 676.308 240.313 675.173L240.314 675.171L216.06 661.101C185.13 643.158 179.665 648.42 176.564 653.769C173.46 659.118 171.604 666.474 202.534 684.417Z" fill="#BAB5B2"/>
        <path d="M250.885 623.04L259.521 608.083C260.691 606.055 262.897 604.833 265.3 604.885L277.998 605.155C281.159 605.221 283.529 608.499 282.148 610.89L267.181 636.814C266.189 638.533 263.943 639.094 262.164 638.067L254.874 633.858C250.634 631.41 248.848 626.567 250.885 623.04Z" fill="#BAB5B2"/>
        <path d="M301.901 664.681L290.308 684.761L290.307 684.76L286.561 691.247C285.142 693.706 285.975 696.847 288.424 698.261L319.025 715.929C321.198 717.183 323.981 716.43 325.242 714.247L325.244 714.248L340.871 687.181C360.798 652.666 351.415 644.562 342.475 639.401C333.536 634.24 321.828 630.167 301.901 664.681Z" fill="#BAB5B2"/>
        <path d="M301.261 741.417L319.255 751.855L319.254 751.857C324.669 754.998 331.633 753.104 334.81 747.627L340.506 737.812C341.653 735.832 340.996 733.308 339.04 732.173L339.041 732.171L314.787 718.101C283.857 700.158 278.391 705.42 275.29 710.769C272.187 716.118 270.331 723.474 301.261 741.417Z" fill="#BAB5B2"/>
        <path d="M349.612 680.04L358.248 665.083C359.418 663.055 361.624 661.833 364.027 661.885L376.725 662.155C379.886 662.221 382.256 665.499 380.875 667.89L365.908 693.814C364.916 695.533 362.67 696.094 360.891 695.067L353.602 690.858C349.361 688.41 347.575 683.567 349.612 680.04Z" fill="#BAB5B2"/>
        <path d="M331.411 165.568L319.818 185.647L319.817 185.647L316.071 192.134C314.652 194.593 315.485 197.734 317.934 199.148L348.535 216.815C350.708 218.07 353.492 217.317 354.752 215.133L354.754 215.134L370.381 188.067C390.308 153.553 380.925 145.449 371.986 140.288C363.046 135.127 351.338 131.054 331.411 165.568Z" fill="#BAB5B2"/>
        <path d="M330.772 242.304L348.765 252.742L348.764 252.743C354.179 255.885 361.144 253.991 364.321 248.514L370.016 238.699C371.163 236.719 370.507 234.195 368.55 233.059L368.551 233.058L344.297 218.988C313.367 201.045 307.902 206.307 304.801 211.655C301.697 217.004 299.842 224.36 330.772 242.304Z" fill="#BAB5B2"/>
        <path d="M379.122 180.927L387.758 165.969C388.928 163.942 391.134 162.72 393.537 162.772L406.235 163.041C409.396 163.108 411.766 166.385 410.386 168.777L395.418 194.701C394.426 196.42 392.18 196.981 390.401 195.954L383.112 191.745C378.871 189.297 377.086 184.454 379.122 180.927Z" fill="#BAB5B2"/>
        <path d="M426.674 220.568L415.081 240.647L415.08 240.647L411.334 247.134C409.914 249.593 410.748 252.734 413.197 254.148L443.798 271.815C445.971 273.07 448.754 272.317 450.015 270.133L450.016 270.134L465.644 243.067C485.571 208.553 476.188 200.449 467.248 195.288C458.309 190.127 446.601 186.054 426.674 220.568Z" fill="#BAB5B2"/>
        <path d="M426.034 297.304L444.028 307.742L444.027 307.743C449.442 310.885 456.406 308.991 459.583 303.514L465.279 293.699C466.426 291.719 465.769 289.195 463.813 288.059L463.813 288.058L439.56 273.988C408.63 256.045 403.164 261.307 400.063 266.655C396.96 272.004 395.104 279.36 426.034 297.304Z" fill="#BAB5B2"/>
        <path d="M474.385 235.927L483.021 220.969C484.191 218.942 486.397 217.72 488.8 217.772L501.498 218.041C504.659 218.108 507.029 221.385 505.648 223.777L490.681 249.701C489.689 251.42 487.443 251.981 485.664 250.954L478.374 246.745C474.134 244.297 472.348 239.454 474.385 235.927Z" fill="#BAB5B2"/>
        <path d="M525.401 277.568L513.808 297.647L513.807 297.646L510.061 304.134C508.642 306.593 509.475 309.734 511.924 311.148L542.525 328.815C544.698 330.07 547.481 329.317 548.742 327.133L548.744 327.134L564.371 300.067C584.298 265.553 574.915 257.449 565.975 252.288C557.036 247.126 545.328 243.053 525.401 277.568Z" fill="#BAB5B2"/>
        <path d="M524.761 354.303L542.755 364.742L542.754 364.743C548.169 367.885 555.133 365.991 558.31 360.514L564.006 350.698C565.153 348.719 564.496 346.195 562.54 345.059L562.541 345.058L538.287 330.988C507.357 313.044 501.891 318.307 498.79 323.655C495.687 329.004 493.831 336.36 524.761 354.303Z" fill="#BAB5B2"/>
        <path d="M573.112 292.926L581.748 277.969C582.918 275.942 585.124 274.72 587.527 274.772L600.225 275.041C603.386 275.108 605.756 278.385 604.375 280.777L589.408 306.701C588.416 308.42 586.17 308.981 584.391 307.954L577.102 303.745C572.861 301.297 571.075 296.454 573.112 292.926Z" fill="#BAB5B2"/>
        <path d="M182.411 423.644L170.818 443.723L170.817 443.722L167.071 450.21C165.652 452.669 166.485 455.809 168.934 457.223L199.535 474.891C201.708 476.146 204.492 475.393 205.752 473.209L205.754 473.21L221.381 446.143C241.308 411.628 231.925 403.525 222.986 398.363C214.046 393.202 202.338 389.129 182.411 423.644Z" fill="#BAB5B2"/>
        <path d="M181.772 500.379L199.765 510.817L199.764 510.819C205.179 513.96 212.144 512.066 215.321 506.59L221.016 496.774C222.163 494.794 221.507 492.27 219.55 491.135L219.551 491.133L195.297 477.064C164.367 459.12 158.902 464.382 155.801 469.731C152.698 475.08 150.842 482.436 181.772 500.379Z" fill="#BAB5B2"/>
        <path d="M230.122 439.002L238.758 424.045C239.928 422.017 242.134 420.795 244.537 420.847L257.235 421.117C260.396 421.183 262.766 424.461 261.386 426.852L246.418 452.777C245.426 454.495 243.18 455.056 241.401 454.029L234.112 449.821C229.871 447.372 228.086 442.53 230.122 439.002Z" fill="#BAB5B2"/>
        <path d="M277.674 478.644L266.081 498.723L266.08 498.722L262.334 505.21C260.914 507.669 261.748 510.809 264.197 512.223L294.798 529.891C296.971 531.146 299.754 530.393 301.015 528.209L301.016 528.21L316.644 501.143C336.571 466.628 327.188 458.525 318.248 453.363C309.309 448.202 297.601 444.129 277.674 478.644Z" fill="#BAB5B2"/>
        <path d="M277.034 555.379L295.028 565.817L295.027 565.819C300.442 568.96 307.407 567.066 310.584 561.59L316.279 551.774C317.426 549.794 316.77 547.27 314.813 546.135L314.814 546.133L290.56 532.064C259.63 514.12 254.165 519.382 251.064 524.731C247.96 530.08 246.104 537.436 277.034 555.379Z" fill="#BAB5B2"/>
        <path d="M325.385 494.002L334.021 479.045C335.191 477.017 337.397 475.795 339.8 475.847L352.498 476.117C355.659 476.183 358.029 479.461 356.648 481.852L341.681 507.777C340.689 509.495 338.443 510.056 336.664 509.029L329.374 504.821C325.134 502.372 323.348 497.53 325.385 494.002Z" fill="#BAB5B2"/>
        <path d="M376.401 535.644L364.808 555.723L364.807 555.722L361.061 562.21C359.642 564.669 360.475 567.809 362.924 569.223L393.525 586.891C395.698 588.146 398.481 587.393 399.742 585.209L399.744 585.21L415.371 558.143C435.298 523.628 425.915 515.525 416.975 510.363C408.036 505.202 396.328 501.129 376.401 535.644Z" fill="#BAB5B2"/>
        <path d="M375.761 612.379L393.755 622.817L393.754 622.819C399.169 625.96 406.133 624.066 409.31 618.59L415.006 608.774C416.153 606.794 415.496 604.27 413.54 603.135L413.541 603.133L389.287 589.064C358.357 571.12 352.891 576.382 349.79 581.731C346.687 587.08 344.831 594.436 375.761 612.379Z" fill="#BAB5B2"/>
        <path d="M424.112 551.002L432.748 536.045C433.918 534.017 436.124 532.795 438.527 532.847L451.225 533.117C454.386 533.183 456.756 536.461 455.375 538.852L440.408 564.777C439.416 566.495 437.17 567.056 435.391 566.029L428.102 561.821C423.861 559.372 422.075 554.53 424.112 551.002Z" fill="#BAB5B2"/>
        <path d="M405.911 36.5301L394.318 56.6095L394.317 56.6087L390.571 63.0962C389.152 65.5551 389.985 68.6961 392.434 70.1098L423.035 87.7774C425.208 89.0321 427.992 88.2792 429.252 86.0955L429.254 86.0964L444.881 59.0293C464.808 24.5149 455.425 16.4112 446.486 11.2499C437.546 6.08872 425.838 2.0157 405.911 36.5301Z" fill="#BAB5B2"/>
        <path d="M405.272 113.266L423.265 123.704L423.264 123.705C428.679 126.847 435.644 124.953 438.821 119.476L444.516 109.661C445.663 107.681 445.007 105.157 443.05 104.021L443.051 104.02L418.797 89.9502C387.867 72.0067 382.402 77.2691 379.301 82.6175C376.197 87.9664 374.342 95.3224 405.272 113.266Z" fill="#BAB5B2"/>
        <path d="M453.622 51.8885L462.258 36.9312C463.428 34.9038 465.634 33.6818 468.037 33.7337L480.735 34.0032C483.896 34.07 486.266 37.3472 484.886 39.7389L469.918 65.6631C468.926 67.3819 466.68 67.9425 464.901 66.9156L457.612 62.7071C453.371 60.2588 451.586 55.416 453.622 51.8885Z" fill="#BAB5B2"/>
        <path d="M501.174 91.5301L489.581 111.61L489.58 111.609L485.834 118.096C484.414 120.555 485.248 123.696 487.697 125.11L518.298 142.777C520.471 144.032 523.254 143.279 524.515 141.096L524.516 141.096L540.144 114.029C560.071 79.5149 550.688 71.4112 541.748 66.2499C532.809 61.0887 521.101 57.0157 501.174 91.5301Z" fill="#BAB5B2"/>
        <path d="M500.534 168.266L518.528 178.704L518.527 178.705C523.942 181.847 530.906 179.953 534.083 174.476L539.779 164.661C540.926 162.681 540.269 160.157 538.313 159.021L538.313 159.02L514.06 144.95C483.13 127.007 477.664 132.269 474.563 137.617C471.46 142.966 469.604 150.322 500.534 168.266Z" fill="#BAB5B2"/>
        <path d="M548.885 106.889L557.521 91.9314C558.691 89.904 560.897 88.682 563.3 88.7339L575.998 89.0034C579.159 89.0702 581.529 92.3474 580.148 94.7391L565.181 120.663C564.189 122.382 561.943 122.943 560.164 121.916L552.874 117.707C548.634 115.259 546.848 110.416 548.885 106.889Z" fill="#BAB5B2"/>
        <path d="M599.901 148.53L588.308 168.61L588.307 168.609L584.561 175.096C583.142 177.555 583.975 180.696 586.424 182.11L617.025 199.777C619.198 201.032 621.981 200.279 623.242 198.096L623.244 198.096L638.871 171.029C658.798 136.515 649.415 128.411 640.475 123.25C631.536 118.089 619.828 114.016 599.901 148.53Z" fill="#BAB5B2"/>
        <path d="M599.261 225.266L617.255 235.704L617.254 235.705C622.669 238.847 629.633 236.953 632.81 231.476L638.506 221.661C639.653 219.681 638.996 217.157 637.04 216.021L637.041 216.02L612.787 201.95C581.857 184.007 576.391 189.269 573.29 194.617C570.187 199.966 568.331 207.322 599.261 225.266Z" fill="#BAB5B2"/>
        <path d="M647.612 163.889L656.248 148.931C657.418 146.904 659.624 145.682 662.027 145.734L674.725 146.003C677.886 146.07 680.256 149.347 678.875 151.739L663.908 177.663C662.916 179.382 660.67 179.943 658.891 178.916L651.602 174.707C647.361 172.259 645.575 167.416 647.612 163.889Z" fill="#BAB5B2"/>
    </g>
</svg>
