<svg width="44" height="41" viewBox="0 0 44 41" fill="none"
    xmlns="http://www.w3.org/2000/svg">
    <path d="M7.8569 0.88916C7.1026 0.88916 6.41744 1.3107 6.08901 1.97531L0.196047 13.8984C0.0338292 14.2266 -0.0296997 14.5933 0.0128711 14.9556C0.0554419 15.3179 0.202358 15.6609 0.43648 15.9445L20.4725 40.1752C20.6567 40.3982 20.8894 40.578 21.1537 40.7015C21.418 40.8251 21.7071 40.8892 22 40.8892C22.2929 40.8892 22.582 40.8251 22.8463 40.7015C23.1106 40.578 23.3433 40.3982 23.5275 40.1752L43.5635 15.9445C43.7976 15.6609 43.9446 15.3179 43.9871 14.9556C44.0297 14.5933 43.9662 14.2266 43.804 13.8984L37.911 1.97531C37.7503 1.64993 37.4993 1.37545 37.1866 1.18334C36.8739 0.991238 36.5123 0.889281 36.1431 0.88916L7.8569 0.88916ZM5.28599 12.4276L9.08892 4.73531H14.8844L12.4283 12.4276H5.28599ZM5.76372 16.2737H12.2035L16.7105 29.5137L5.76372 16.2737ZM16.3443 16.2737H27.6557L22 32.8845L16.3443 16.2737ZM31.7965 16.2737H38.2363L27.2895 29.5137L31.7965 16.2737ZM38.714 12.4276L31.5702 12.4276L29.114 4.73531H34.9095L38.714 12.4276ZM27.4561 12.4276H16.5439L19.0001 4.73531L24.9999 4.73531L27.4561 12.4276Z" fill="#F1F1F1"/>
</svg>
