<svg width="37" height="24" viewBox="0 0 37 24" fill="none"
    xmlns="http://www.w3.org/2000/svg">
    <path d="M22.7707 -9.82285e-05H14.9492H12.4222C11.464 -9.82285e-05 10.6873 0.776706 10.6873 1.73486V13.7124C10.6873 14.5635 11.3766 15.2529 12.2277 15.2529V15.2534H22.7707C36.2155 15.2534 37 11.1252 37 7.62694C37 4.12753 36.2155 -9.82285e-05 22.7707 -9.82285e-05Z" fill="#2E2E2D"/>
    <path d="M0.0147747 12.9559L8.32945e-06 20.0028C-0.00436183 22.1239 1.71147 23.8463 3.83209 23.8507L7.63304 23.8589C8.39946 23.8605 9.02221 23.2405 9.02385 22.4735H9.02439L9.04406 12.9745C9.06919 0.86038 6.62681 0.148617 4.5559 0.144247C2.48444 0.139875 0.0399031 0.841814 0.0147747 12.9559Z" fill="#2E2E2D"/>
    <path d="M25.8575 16.9549H31.7353C32.5318 16.9549 33.2671 17.3826 33.6609 18.0753L35.7422 21.7363C36.2606 22.647 35.698 23.8613 34.7584 23.8613H24.5705C23.8953 23.8613 23.3479 23.314 23.3479 22.6382V19.8703C23.3479 18.2604 24.471 16.9549 25.8575 16.9549Z" fill="#2E2E2D"/>
</svg>
