<svg width="42" height="48" viewBox="0 0 42 48" fill="none"
    xmlns="http://www.w3.org/2000/svg">
    <path fill-rule="evenodd" clip-rule="evenodd" d="M19.4083 0.21879C18.1162 0.605277 16.9715 1.5148 16.2414 2.73485C15.6991 3.64109 15.5001 4.37834 15.4996 5.48275C15.4988 6.83044 15.7086 7.52304 16.5323 8.89352C17.7129 10.8577 18.1732 13.2064 17.6149 14.4181C17.1513 15.4243 16.556 15.7651 14.8752 15.9867C8.14732 16.8734 3.1143 18.9078 1.10347 21.5532C0.325438 22.5767 -0.00441041 23.4781 4.44907e-05 24.568C0.00245756 25.143 0.17592 25.9648 0.94996 29.0696C1.47081 31.1587 1.94563 32.9171 2.00512 32.9771C2.14768 33.121 3.99507 33.9581 5.2224 34.435C10.5095 36.4892 15.4082 37.4142 21.0002 37.4142C26.522 37.4142 31.2387 36.5407 36.4531 34.5524C37.9095 33.9971 39.8299 33.1433 39.9964 32.9771C40.0566 32.9171 40.5312 31.1587 41.0512 29.0696C41.8225 25.9715 41.9973 25.1417 41.9999 24.568C42.0034 23.8232 41.8493 23.175 41.5075 22.496C39.9337 19.3703 34.6574 16.9798 27.1453 15.9892C26.5185 15.9066 25.8982 15.7976 25.7666 15.747C25.2189 15.5367 24.7101 15.0614 24.4332 14.5014C24.1928 14.0151 24.156 13.8392 24.1581 13.1815C24.1626 11.7579 24.582 10.4199 25.5409 8.76991C26.1806 7.66934 26.3587 7.17585 26.4856 6.15331C26.7498 4.02411 25.6942 1.90673 23.7836 0.733481C22.59 0.000458426 20.8302 -0.206525 19.4083 0.21879ZM22.0954 3.33395C22.9795 3.77915 23.5061 4.65435 23.5061 5.67885C23.5061 6.71264 22.6585 7.78667 21.6186 8.07074C20.5095 8.37367 19.3101 7.80589 18.7755 6.72493C17.9349 5.02489 19.1187 3.09123 21.0002 3.09123C21.4738 3.09123 21.7232 3.14647 22.0954 3.33395ZM25.8727 18.9869C31.3962 19.6369 35.5958 21.0924 37.5511 23.0342C38.3788 23.8561 38.5966 24.6754 38.1959 25.4589C37.9618 25.9168 37.0833 26.7777 36.4008 27.2182C34.384 28.5202 31.2195 29.5525 27.5897 30.093C25.1093 30.4623 24.2451 30.5182 21.0002 30.5182C17.7552 30.5182 16.8911 30.4623 14.4106 30.093C10.7808 29.5525 7.61635 28.5202 5.59958 27.2182C4.91705 26.7777 4.0386 25.9168 3.80444 25.4589C3.15198 24.1833 4.16473 22.7927 6.69938 21.4843C9.31803 20.1325 13.1856 19.1965 17.5841 18.8501C19.2038 18.7225 24.3479 18.8074 25.8727 18.9869ZM2.80932 36.5279C2.80932 36.8349 4.27165 42.3561 4.45096 42.7262C5.77833 45.4655 10.6529 47.3848 17.659 47.9266C19.5367 48.0718 24.2097 47.9903 25.9655 47.7816C32.1258 47.0497 36.4065 45.1853 37.5539 42.7344C37.7919 42.226 39.2377 36.5884 39.1522 36.502C39.1271 36.4765 38.7183 36.6129 38.2438 36.8052C27.0752 41.3313 14.8699 41.3355 3.78903 36.8171C2.96107 36.4796 2.80932 36.4348 2.80932 36.5279Z" fill="#F1F1F1"/>
</svg>
