<svg width="46" height="48" viewBox="0 0 46 48" fill="none"
    xmlns="http://www.w3.org/2000/svg">
    <path fill-rule="evenodd" clip-rule="evenodd" d="M22.6175 0.0786039C22.3658 0.123289 21.3949 0.29935 20.46 0.469859C17.5661 0.997521 17.0191 1.09643 16.2558 1.23022C15.3808 1.38348 14.9541 1.53309 14.4357 1.86816C13.3799 2.55065 12.7864 3.73814 12.8638 5.01355C12.8823 5.31897 13.1648 7.02849 13.4916 8.81243C13.8184 10.5964 14.0857 12.0821 14.0857 12.114C14.0857 12.1458 13.9013 12.2779 13.676 12.4074C10.3746 14.3048 8.60435 17.9619 9.19131 21.6724C9.22825 21.906 9.35907 22.6056 9.48191 23.2271C9.60483 23.8486 9.70538 24.4225 9.70538 24.5023C9.70538 24.5821 10.6495 27.0134 11.8035 29.9052C12.9574 32.7969 14.2344 36.0007 14.6411 37.0247C15.9573 40.3379 18.7751 47.3705 18.9143 47.6897C18.9945 47.8735 19.0922 48 19.1539 48C19.2112 48 19.5432 47.9428 19.8917 47.8729C20.2402 47.803 21.3197 47.5976 22.2906 47.4165C23.2614 47.2355 24.9237 46.9236 25.9844 46.7235C31.6802 45.6492 35.4543 44.9534 36.1507 44.8492L36.7391 44.7612V32.1878V19.6146L36.3907 17.8507C35.9973 15.8593 35.7957 15.1857 35.3221 14.2808C34.054 11.8577 31.7138 10.1772 28.8255 9.61539C28.5034 9.55274 28.2347 9.49825 28.2282 9.4942C28.2218 9.49022 28.1105 8.89938 27.9809 8.18122C27.8512 7.463 27.6882 6.56675 27.6186 6.18947C27.4811 5.44446 27.3743 4.84069 27.1215 3.38033C26.9146 2.18409 26.6784 1.65375 26.0929 1.07017C25.1883 0.168235 24.0082 -0.16847 22.6175 0.0786039ZM23.4351 3.69064C23.4356 3.74186 23.4947 4.08013 23.9914 6.87543C24.4742 9.59187 24.4963 9.72371 24.4716 9.74415C24.4513 9.76094 23.0624 10.0328 20.5581 10.5102C20.1805 10.5822 19.4325 10.7272 18.8959 10.8325C18.3593 10.9377 17.8575 11.0238 17.7808 11.0238C17.6523 11.0238 17.6249 10.9378 17.4325 9.92956C16.981 7.5638 16.5079 4.98853 16.5222 4.97462C16.5305 4.96658 16.861 4.89949 17.2565 4.82547C18.796 4.53744 19.8076 4.34243 21.5061 4.00618C23.477 3.61597 23.4345 3.6229 23.4351 3.69064ZM40.5055 7.30614C39.6284 7.73398 38.8855 8.08401 38.8547 8.08401C38.8237 8.08401 38.7985 8.12184 38.7985 8.16816C38.7985 8.2374 40.0924 10.9622 41.0077 12.8204C41.4974 13.8146 41.878 15.0232 42.1081 16.3155C42.2 16.8309 42.2234 17.5257 42.2465 20.4149L42.2743 23.8936H44.1372H46L45.9723 20.4149C45.9474 17.2753 45.9312 16.85 45.806 16.0541C45.4189 13.5918 44.8649 12.142 42.3947 7.12649L42.1 6.52833L40.5055 7.30614ZM28.4361 13.3359C29.0101 13.4908 29.9467 13.9745 30.4043 14.3522C30.9047 14.7653 31.4863 15.4899 31.7669 16.0495C32.1047 16.7235 32.1089 16.7592 31.8553 16.8023C31.7367 16.8225 30.9924 16.9552 30.2013 17.0973C29.4102 17.2394 28.0128 17.4897 27.0958 17.6536C26.1789 17.8174 25.1198 18.0082 24.7422 18.0776C23.1613 18.3679 21.8014 18.6148 20.2312 18.8965C19.3143 19.061 17.9315 19.3099 17.1584 19.4496C14.0289 20.0152 13.032 20.184 13.0015 20.1535C12.9839 20.136 13.0028 19.8485 13.0434 19.5148C13.2932 17.4613 14.5042 15.8362 16.283 15.1671C16.7782 14.9809 17.0545 14.9255 22.2906 13.9636C24.5963 13.54 25.7975 13.3178 26.1479 13.2501C26.6165 13.1594 27.9705 13.2102 28.4361 13.3359ZM0.851144 14.6986C0.764257 15.2354 0.41599 17.5361 0.255357 18.6346C-0.0771543 20.9081 -0.084542 22.7083 0.230905 24.5329C0.369441 25.3337 0.710189 26.7023 0.817409 26.8883C0.851797 26.9479 1.10298 27.6288 1.37567 28.4013C2.26324 30.9158 2.66001 32.0267 2.67806 32.0472C2.6878 32.0582 3.01521 31.9489 3.40565 31.8041C3.79615 31.6593 4.55237 31.3804 5.08618 31.1843C5.61999 30.9882 6.0741 30.8104 6.09528 30.7893C6.14465 30.7399 6.08907 30.5768 5.11017 27.901C4.0287 24.9448 3.7817 23.9309 3.71233 22.1624C3.66454 20.9451 3.72279 20.3926 4.21509 17.3942C4.42737 16.1012 4.58009 15.0233 4.55446 14.9989C4.52883 14.9745 3.993 14.8763 3.36374 14.7806C2.73448 14.685 1.95485 14.5655 1.63123 14.515C1.30761 14.4646 1.00982 14.4228 0.969477 14.4221C0.929139 14.4214 0.875856 14.5459 0.851144 14.6986ZM33.0291 31.0277L33.0125 41.6896L31.3454 41.9981C30.4285 42.1678 29.2075 42.3953 28.6322 42.5038C28.0569 42.6123 26.9389 42.8208 26.1479 42.9671C23.9752 43.3689 23.349 43.4858 22.4372 43.6598C21.9785 43.7473 21.5485 43.819 21.4815 43.819C21.3815 43.819 21.0901 43.1438 19.8531 40.0462C19.0244 37.9712 17.2376 33.5009 15.8823 30.1122C14.527 26.7235 13.4289 23.9402 13.442 23.9271C13.463 23.9061 14.104 23.7856 17.0931 23.2407C17.4706 23.1718 18.5297 22.981 19.4467 22.8167C21.1481 22.5118 22.2833 22.306 23.7943 22.0284C24.2617 21.9426 25.3944 21.7381 26.3113 21.5741C27.2282 21.4101 28.3021 21.2162 28.6976 21.1431C30.854 20.745 32.8918 20.3763 32.9637 20.3714C33.0291 20.367 33.0423 22.5171 33.0291 31.0277Z" fill="#F1F1F1"/>
</svg>
