<svg width="58" height="49" viewBox="0 0 58 49" fill="none"
    xmlns="http://www.w3.org/2000/svg">
    <path fill-rule="evenodd" clip-rule="evenodd" d="M38.678 1.48792C39.2306 1.75373 40.0177 2.18981 40.4272 2.45683C40.8367 2.72395 44.7331 5.92818 49.0859 9.57751L57 16.2125L52.2845 20.96L47.5689 25.7076L46.4247 24.5594L45.2804 23.4113L45.2453 33.1456C45.206 43.9931 45.2493 43.3617 44.4322 45.0053C43.6725 46.5335 42.3378 47.5923 40.8011 47.8856C39.9932 48.0399 18.1367 48.0373 17.1913 47.8828C15.6742 47.635 14.2619 46.5268 13.5241 45.0054C12.7149 43.3369 12.7585 43.9797 12.7193 33.1456L12.6842 23.4113L11.54 24.5594L10.3957 25.7076L5.67294 20.9528C3.07554 18.3377 0.972823 16.18 1.00027 16.1579C1.02781 16.1359 4.5186 13.2197 8.75759 9.67745C12.9966 6.13521 16.7354 3.02938 17.0661 2.77557C17.6652 2.31572 20.1708 0.999997 20.4474 0.999997C20.5273 0.999997 20.9159 1.32535 21.3109 1.72302C22.7065 3.12811 24.54 4.15447 26.5436 4.65241C27.6784 4.9344 29.939 4.98855 31.0048 4.75917C33.2215 4.28215 35.0774 3.29695 36.6516 1.76165C37.0811 1.34274 37.4868 1.00099 37.553 1.0022C37.6193 1.00352 38.1255 1.222 38.678 1.48792ZM36.9491 5.58059C35.9948 6.24594 34.7036 6.91371 33.5995 7.31314C30.7596 8.34038 27.226 8.34137 24.3652 7.31567C23.2331 6.90985 21.5896 6.02636 20.6678 5.32821L19.8769 4.72924L19.2999 5.09344C18.9826 5.29376 15.7666 7.93291 12.1534 10.9583L5.58384 16.459L7.96248 18.8556L10.341 21.2522L13.0998 18.4763L15.8585 15.7005L15.8884 29.1801L15.9182 42.6598L16.2252 43.3199C16.5891 44.1024 16.8855 44.4502 17.3633 44.6552C17.8867 44.8797 40.0756 44.8793 40.6096 44.6546C41.1283 44.4365 41.6376 43.7564 41.8857 42.9509C42.0949 42.2713 42.101 41.8748 42.101 28.9734L42.101 15.6954L44.8623 18.4738L47.6236 21.2522L50.0021 18.8556L52.3808 16.459L45.7138 10.8713C42.047 7.79819 38.837 5.16367 38.5803 5.01684C38.2001 4.79946 38.0806 4.77481 37.9353 4.88366C37.8371 4.95718 37.3934 5.27087 36.9491 5.58059Z" fill="#F1F1F1" stroke="#F1F1F1" stroke-width="0.5"/>
</svg>
