<svg width="44" height="44" viewBox="0 0 44 44" fill="none"
    xmlns="http://www.w3.org/2000/svg">
    <path d="M22 44C19.3233 43.67 16.665 42.9462 14.025 41.8286C11.385 40.711 9.02954 39.1065 6.9586 37.015C4.88767 34.9235 3.2098 32.2835 1.925 29.095C0.640202 25.9065 -0.00146416 22.0748 2.50855e-06 17.6V15.4H2.2C4.07 15.4 5.995 15.6383 7.975 16.115C9.955 16.5917 11.8067 17.3067 13.53 18.26C13.97 15.1067 14.9695 11.8705 16.5286 8.5514C18.0877 5.23233 19.9115 2.38187 22 0C24.09 2.38333 25.9145 5.23453 27.4736 8.5536C29.0327 11.8727 30.0315 15.1081 30.47 18.26C32.1933 17.3067 34.045 16.5917 36.025 16.115C38.005 15.6383 39.93 15.4 41.8 15.4H44V17.6C44 22.0733 43.3583 25.905 42.075 29.095C40.7917 32.285 39.1145 34.925 37.0436 37.015C34.9727 39.105 32.626 40.7095 30.0036 41.8286C27.3812 42.9477 24.7133 43.6715 22 44ZM21.89 39.49C21.4867 33.4033 19.6805 28.8017 16.4714 25.685C13.2623 22.5683 9.2752 20.6433 4.51 19.91C4.91334 26.18 6.77453 30.855 10.0936 33.935C13.4127 37.015 17.3448 38.8667 21.89 39.49ZM22 25.52C22.55 24.7133 23.2195 23.8795 24.0086 23.0186C24.7977 22.1577 25.5581 21.4148 26.29 20.79C26.2167 18.7 25.8045 16.5183 25.0536 14.245C24.3027 11.9717 23.2848 9.75333 22 7.59C20.7167 9.75333 19.6988 11.9717 18.9464 14.245C18.194 16.5183 17.7819 18.7 17.71 20.79C18.4433 21.4133 19.2133 22.1562 20.02 23.0186C20.8267 23.881 21.4867 24.7148 22 25.52ZM26.29 38.5C27.6467 38.06 29.0583 37.4183 30.525 36.575C31.9917 35.7317 33.3579 34.5862 34.6236 33.1386C35.8893 31.691 36.971 29.8848 37.8686 27.72C38.7662 25.5552 39.3067 22.9519 39.49 19.91C36.0433 20.4233 33.0183 21.5695 30.415 23.3486C27.8117 25.1277 25.8133 27.3915 24.42 30.14C24.86 31.3133 25.2362 32.5967 25.5486 33.99C25.861 35.3833 26.1081 36.8867 26.29 38.5Z" fill="#F1F1F1"/>
</svg>
