<svg width="176" height="174" viewBox="0 0 176 174" fill="none"
    xmlns="http://www.w3.org/2000/svg">
    <path opacity="0.1" fill-rule="evenodd" clip-rule="evenodd" d="M87.6982 174H54.0978L47.5622 127.647L5.69889 98.9665C4.04986 97.8377 2.72554 96.296 1.85815 94.4953C0.990758 92.6946 0.610645 90.6978 0.755755 88.7044C0.900866 86.711 1.56613 84.7906 2.68512 83.135C3.80411 81.4795 5.33768 80.1466 7.13273 79.2695L52.7279 56.9911L67.0574 8.30315C67.6217 6.38679 68.6785 4.65207 70.1223 3.27204C71.566 1.89201 73.3464 0.914897 75.2856 0.438185C77.2249 -0.0385276 79.2554 0.0018194 81.1744 0.555203C83.0935 1.10859 84.8341 2.15566 86.2225 3.59198L121.492 40.0876L172.219 38.688C173.505 38.6533 174.783 38.8363 175.999 39.2245V67.9408L158.827 100.296L173.176 140.604C170.17 149.145 164.911 156.623 158.112 162.326L113.134 154.406L87.6982 174Z" fill="#575C4A"/>
</svg>
